<svg class="svg-content" preserveAspectRatio="none" version="1.1" width="100%" height="100%" viewBox="0 0 508 285" xmlns="http://www.w3.org/2000/svg"><defs><linearGradient id="OTa" x1="535" x2="535" y1="-265" y2="297" gradientTransform="matrix(.5 0 0 .5 -16.9 423)" gradientUnits="userSpaceOnUse"><stop style="stop-color:#0c1830" offset="0"/><stop style="stop-color:#5f7794" offset="1"/></linearGradient></defs><g transform="translate(0,-285.75)"><rect x="-16.9" y="285.75" width="541.87" height="285.75" style="enable-background:new;fill:url(#OTa);paint-order:normal"/></g><g transform="translate(0 -11.25)"><g transform="matrix(.5 0 0 .5 -16.9 148.5)" style="stroke-width:2"><path transform="matrix(.265 0 0 .265 0 -274.5)" d="m4096 213.404c-181.398 49.847-356.963 122.708-521.17 217.334-280.043 161.377-528.737 387.18-702.123 667.635-173.386 280.455-268.733 616.713-247.547 949.688 2.377 37.356 6.201 74.666 10.748 111.94h1460.092z" style="enable-background:new;fill:#fff;opacity:.05;paint-order:normal"/><path transform="matrix(.265 0 0 .265 0 -274.5)" d="m4062.619 1015.512c-99.527-.085-196.651 12.766-290.264 38.373-198.726 54.36-381.628 166.209-538.108 333.832-178.418 191.124-321.457 455.976-419.684 772.283h1281.436v-1143.957c-11.155-.331-22.284-.522-33.381-.531z" style="enable-background:new;fill:#fff;opacity:.05;paint-order:normal"/><path transform="matrix(.265 0 0 .265 0 -274.5)" d="m1629.818 0c-90.857 137.18-158.108 289.981-196.115 450.096-29.968 126.246-42.569 257.099-86.873 379.055-22.152 60.978-52.385 119.562-94.213 169.154-41.828 49.593-95.728 89.958-157.279 110.463-58.388 19.451-121.982 20.515-182.387 8.736-60.405-11.779-117.851-36.015-171.619-65.955-107.537-59.88-200.935-142.282-306.313-205.885-131.737-79.513-281.836-127.929-435.02-142.053v1456.389h4096l-2e-4 -2160z" style="enable-background:new;fill:#fff;opacity:.05;paint-order:normal"/><path transform="matrix(.265 0 0 .265 0 -274.5)" d="m2980.158 94.371c-310.335-.787-620.797 81.516-892.498 238.086-224.669 129.467-424.188 310.622-563.289 535.621s-215.594 494.768-198.6 761.902c11.01 173.05 60.219 344.848 41.633 517.191-0.462 4.281-0.977 8.558-1.523 12.828h2730.117v-1664.678c-1.158-.938-2.308-1.886-3.469-2.82-280.792-226.141-625.773-364.443-979.494-392.68-44.215-3.53-88.545-5.339-132.879-5.451z" style="enable-background:new;fill:#fff;opacity:.05;paint-order:normal"/><path transform="matrix(.265 0 0 .265 0 -274.5)" d="m3131.801 1240.32c-206.027-.081-412.002 32.525-607.25 98.447-418.082 141.158-784.624 437.865-1000.326 821.232h2571.775v-660.121c-46.958-27.67-95.131-53.293-144.391-76.711-255.048-121.247-537.476-182.737-819.809-182.848z" style="enable-background:new;fill:#fff;opacity:.05;paint-order:normal"/><path d="m201.571-274.5c-59.505 41.038-96.048 143.754-49.318 204.467 28.962 34.741 124.884 22.289 116.565 81.28-5.834 47.812 23.421 110.379 61.449 143.127 72.494 66.649 141.315 64.357 233.95 55.684 106.986-10.577 217.945-30.288 322.72 4.853 58.444 17.394 113.687 45.398 162.38 82.09 8.919-20.072-95.224-128.193-132.866-177.664-25.795-33.901-156.812-185.463-296.191-316.622-23.887-22.478-69.394-77.214-92.866-77.214z" style="enable-background:new;fill:#fff;opacity:.05;paint-order:normal"/><path d="m0-257.1476v554.148h915.535c13.89-94.586-28.568-203.713-120.97-242.0194-101.771-41.637-215.919 2.27-318.222-37.701-54.68-16.024-113.868-50.404-125.034-111.159-4.051-35.686-42.725-63.856-74.366-58.788-52.852 8.467-49.229 48.669-141.829 51.14-65.327 1.743-116.823-93.819-135.114-155.621z" style="enable-background:new;fill:#fff;opacity:.05;paint-order:normal"/><path d="m88.215 85.414c-2.702-0.003-5.407 .041-8.116 .136-27.572 .968-54.897 7.43-80.099 18.646v192.718c218.558 .191 437.306-2e-5 655.864-2e-5 2.668-10.684 4.275-21.631 4.74-32.635 1.3-30.773-6.296-61.871-21.636-88.58-15.34-26.70-38.374-48.94-65.61-63.324-48.08-25.392-105.461-25.368-159.462-19.012-54 6.355-107.873 18.438-162.136 14.992-55.005-3.494-108.601-22.888-163.544-22.942z" style="enable-background:new;fill:#fff;opacity:.05;paint-order:normal"/></g></g></svg>